<svg xmlns="http://www.w3.org/2000/svg" width="22.004" height="19.998"><path d="M19.178 13.377H6.365a.822.822 0 0 1-.8-.627L2.89 1.634H.823A.82.82 0 0 1 0 .817.82.82 0 0 1 .823 0H3.54c.381 0 .712.26.8.627l.742 3.078h16.1a.825.825 0 0 1 .648.314c.125.16.186.358.173.556a.81.81 0 0 1-.022.144l-2.003 8.038a.822.822 0 0 1-.799.62ZM7.015 11.742h11.52l1.594-6.402H5.474l1.541 6.402Zm7.663 5.531a2.737 2.737 0 0 0 2.744 2.725 2.737 2.737 0 0 0 2.744-2.725c0-1.502-1.231-2.724-2.744-2.724-1.513 0-2.744 1.222-2.744 2.724Zm-9.959 0a2.737 2.737 0 0 0 2.744 2.725 2.737 2.737 0 0 0 2.743-2.725c0-1.502-1.23-2.724-2.743-2.724s-2.744 1.222-2.744 2.724Zm12.703-1.09a1.095 1.095 0 0 0-1.097 1.09c0 .601.492 1.09 1.097 1.09a1.095 1.095 0 0 0 1.098-1.09c0-.6-.493-1.09-1.098-1.09Zm-9.96 0a1.095 1.095 0 0 0-1.097 1.09c0 .601.493 1.09 1.098 1.09a1.095 1.095 0 0 0 1.097-1.09c0-.6-.492-1.09-1.097-1.09Z" fill="rgba(41, 40, 45, 1)" fill-rule="evenodd" data-name="cart_icon"/></svg>