<?xml version="1.0" encoding="UTF-8"?>
<svg xmlns="http://www.w3.org/2000/svg" xmlns:xlink="http://www.w3.org/1999/xlink" width="16px" height="16px" viewBox="0 0 16 16" version="1.1">
<g id="surface1">
<path style=" stroke:none;fill-rule:nonzero;fill:rgb(0%,0%,0%);fill-opacity:1;" d="M 13.171875 7.179688 L 13.113281 6.945312 L 8.152344 6.945312 L 8.152344 9.054688 L 11.121094 9.054688 C 10.953125 9.695312 10.578125 10.265625 10.050781 10.667969 C 9.523438 11.074219 8.878906 11.289062 8.214844 11.28125 C 7.347656 11.273438 6.515625 10.941406 5.878906 10.351562 C 5.566406 10.046875 5.320312 9.679688 5.148438 9.277344 C 4.976562 8.871094 4.890625 8.4375 4.886719 8 C 4.898438 7.121094 5.246094 6.277344 5.859375 5.648438 C 6.484375 5.054688 7.316406 4.726562 8.179688 4.734375 C 8.917969 4.738281 9.628906 5.015625 10.179688 5.507812 L 11.648438 4 C 10.679688 3.136719 9.429688 2.664062 8.132812 2.667969 C 7.421875 2.664062 6.714844 2.796875 6.054688 3.066406 C 5.394531 3.335938 4.792969 3.730469 4.285156 4.234375 C 3.324219 5.234375 2.777344 6.566406 2.769531 7.957031 C 2.757812 9.347656 3.277344 10.691406 4.226562 11.707031 C 4.75 12.230469 5.375 12.644531 6.0625 12.921875 C 6.75 13.203125 7.484375 13.339844 8.226562 13.332031 C 8.898438 13.339844 9.566406 13.207031 10.183594 12.945312 C 10.804688 12.6875 11.367188 12.304688 11.832031 11.820312 C 12.75 10.8125 13.246094 9.488281 13.21875 8.125 C 13.226562 7.808594 13.210938 7.492188 13.171875 7.179688 Z M 13.171875 7.179688 "/>
</g>
</svg>
