<svg xmlns="http://www.w3.org/2000/svg" width="19.994" height="20.002"><path d="M16.146.454a5.77 5.77 0 0 0-.566-.228c-1.411-.493-3.057-.169-4.621.873a9.04 9.04 0 0 0-.957.738C8.17.267 6.127-.284 4.424.267a6.475 6.475 0 0 0-.69.305C2.368 1.268.83 2.615.25 4.639a5.97 5.97 0 0 0-.188.855c-.226 1.57.084 3.773 2.146 6.36a67.559 67.559 0 0 0 .803.993 132.634 132.634 0 0 0 3.056 3.571 115.704 115.704 0 0 0 .357.401c2.309 2.594 2.946 3.08 3.323 3.166a.741.741 0 0 0 .169.017H10.087a.722.722 0 0 0 .398-.114c.411-.237 1.16-.956 3.051-3.11a243.266 243.266 0 0 0 3.946-4.637 89.78 89.78 0 0 0 .27-.33 12.836 12.836 0 0 0 1.02-1.471c1.437-2.432 1.373-4.43.981-5.743-.598-2.124-2.214-3.496-3.607-4.143Zm-.465 11.32a84.59 84.59 0 0 0 .793-.982 12.455 12.455 0 0 0 .02-.024c1.228-1.521 1.861-3.043 1.861-4.432a4.252 4.252 0 0 0-.178-1.23 4.503 4.503 0 0 0-.105-.32c-.494-1.337-1.546-2.229-2.486-2.715a5.114 5.114 0 0 0-.517-.234c-1.056-.362-2.425.051-3.758 1.082a9.106 9.106 0 0 0-.67.574.251.251 0 0 1-.056.073.65.65 0 0 1-.157.096.846.846 0 0 1-1.065-.126 9.285 9.285 0 0 0-.417-.381C7.87 2.233 6.759 1.73 5.793 1.73a2.413 2.413 0 0 0-.858.15 4.423 4.423 0 0 0-.424.173 5.217 5.217 0 0 0-1.956 1.585 4.553 4.553 0 0 0-.729 1.468 4.41 4.41 0 0 0-.178 1.248c0 .943.29 1.932.855 2.943a10.612 10.612 0 0 0 1.026 1.495c1.735 2.18 4.57 5.457 5.995 6.916a13.434 13.434 0 0 0 .478.47 11.13 11.13 0 0 0 .32-.31c1.178-1.18 3.569-3.914 5.359-6.095Z" fill="rgba(41, 40, 45, 1)" fill-rule="evenodd" data-name="heart_icon"/></svg>