<?xml version="1.0" encoding="UTF-8"?>
<svg xmlns="http://www.w3.org/2000/svg" xmlns:xlink="http://www.w3.org/1999/xlink" width="16px" height="16px" viewBox="0 0 16 16" version="1.1">
<g id="surface1">
<path style=" stroke:none;fill-rule:nonzero;fill:rgb(0%,0%,0%);fill-opacity:1;" d="M 2 14.398438 L 4.398438 14.398438 L 4.398438 5.519531 L 2 5.519531 Z M 3.199219 1.601562 C 2.398438 1.601562 1.761719 2.238281 1.761719 3.039062 C 1.761719 3.839844 2.398438 4.480469 3.199219 4.480469 C 4 4.480469 4.640625 3.839844 4.640625 3.039062 C 4.640625 2.238281 4 1.601562 3.199219 1.601562 Z M 8.480469 6.878906 L 8.480469 5.519531 L 6.078125 5.519531 L 6.078125 14.398438 L 8.480469 14.398438 L 8.480469 9.839844 C 8.480469 7.28125 11.761719 7.121094 11.761719 9.839844 L 11.761719 14.398438 L 14.160156 14.398438 L 14.160156 8.960938 C 14.160156 4.640625 9.601562 4.800781 8.480469 6.878906 Z M 8.480469 6.878906 "/>
</g>
</svg>
