<?xml version="1.0" encoding="UTF-8"?>
<svg xmlns="http://www.w3.org/2000/svg" xmlns:xlink="http://www.w3.org/1999/xlink" width="16px" height="16px" viewBox="0 0 16 16" version="1.1">
<g id="surface1">
<path style=" stroke:none;fill-rule:nonzero;fill:rgb(0%,0%,0%);fill-opacity:1;" d="M 8.144531 2.5 C 5.269531 2.5 3.738281 4.433594 3.738281 6.539062 C 3.738281 7.515625 4.257812 8.734375 5.09375 9.121094 C 5.21875 9.179688 5.285156 9.15625 5.316406 9.03125 C 5.339844 8.941406 5.453125 8.488281 5.5 8.277344 C 5.519531 8.207031 5.503906 8.136719 5.453125 8.085938 C 5.179688 7.75 4.960938 7.136719 4.960938 6.5625 C 4.960938 5.09375 6.074219 3.671875 7.96875 3.671875 C 9.609375 3.671875 10.757812 4.785156 10.757812 6.382812 C 10.757812 8.1875 9.847656 9.4375 8.660156 9.4375 C 8.007812 9.4375 7.515625 8.898438 7.671875 8.230469 C 7.859375 7.4375 8.222656 6.582031 8.222656 6.011719 C 8.222656 5.5 7.949219 5.070312 7.382812 5.070312 C 6.710938 5.070312 6.175781 5.761719 6.175781 6.691406 C 6.175781 7.28125 6.375 7.679688 6.375 7.679688 C 6.375 7.679688 5.714844 10.476562 5.59375 10.996094 C 5.386719 11.878906 5.617188 13.308594 5.640625 13.433594 C 5.652344 13.5 5.726562 13.523438 5.765625 13.46875 C 5.832031 13.378906 6.628906 12.183594 6.851562 11.320312 L 7.265625 9.734375 C 7.488281 10.152344 8.121094 10.5 8.796875 10.5 C 10.808594 10.5 12.257812 8.648438 12.257812 6.351562 C 12.261719 4.152344 10.460938 2.5 8.144531 2.5 Z M 8.144531 2.5 "/>
</g>
</svg>
