<svg xmlns="http://www.w3.org/2000/svg" width="20" height="20"><path d="m19.878 18.7-5.81-5.81a7.88 7.88 0 0 0 1.753-4.524 7.973 7.973 0 0 0 .012-.45C15.833 3.552 12.282 0 7.917 0A7.925 7.925 0 0 0 0 7.917a7.926 7.926 0 0 0 7.917 7.916 7.859 7.859 0 0 0 4.065-1.128 7.994 7.994 0 0 0 .908-.637l5.81 5.81a.414.414 0 0 0 .21.114.416.416 0 0 0 .355-.092.424.424 0 0 0 .024-.022l.589-.59a.416.416 0 0 0 .022-.564.423.423 0 0 0-.022-.024ZM7.917 14.167a6.256 6.256 0 0 1-6.25-6.25 6.257 6.257 0 0 1 6.25-6.25 6.257 6.257 0 0 1 6.25 6.25 6.257 6.257 0 0 1-6.25 6.25Z" fill="rgba(41, 40, 45, 1)" fill-rule="evenodd" data-name="search"/></svg>