<?xml version="1.0" encoding="UTF-8"?>
<svg xmlns="http://www.w3.org/2000/svg" xmlns:xlink="http://www.w3.org/1999/xlink" width="14px" height="14px" viewBox="0 0 14 14" version="1.1">
<g id="surface1">
<path style=" stroke:none;fill-rule:nonzero;fill:rgb(0%,0%,0%);fill-opacity:1;" d="M 5.214844 10.910156 C 4.101562 10.910156 3.0625 10.585938 2.1875 10.023438 C 3.230469 10.148438 4.285156 9.855469 5.109375 9.207031 C 4.265625 9.191406 3.523438 8.636719 3.265625 7.832031 C 3.386719 7.855469 3.511719 7.867188 3.636719 7.867188 C 3.816406 7.867188 3.992188 7.84375 4.160156 7.800781 C 3.238281 7.613281 2.574219 6.804688 2.574219 5.863281 L 2.574219 5.839844 C 2.847656 5.992188 3.15625 6.074219 3.46875 6.085938 C 2.917969 5.71875 2.589844 5.101562 2.589844 4.441406 C 2.589844 4.082031 2.6875 3.742188 2.855469 3.449219 C 3.859375 4.683594 5.339844 5.433594 6.925781 5.511719 C 6.726562 4.640625 7.132812 3.742188 7.921875 3.324219 C 8.707031 2.902344 9.679688 3.058594 10.292969 3.710938 C 10.734375 3.625 11.160156 3.460938 11.546875 3.234375 C 11.398438 3.691406 11.089844 4.078125 10.679688 4.324219 C 11.070312 4.277344 11.453125 4.175781 11.8125 4.015625 C 11.546875 4.410156 11.214844 4.757812 10.828125 5.039062 C 10.832031 5.121094 10.832031 5.207031 10.832031 5.292969 C 10.832031 7.902344 8.847656 10.910156 5.214844 10.910156 "/>
</g>
</svg>
