<svg xmlns="http://www.w3.org/2000/svg" width="20" height="20"><path d="M17.071 12.929a9.958 9.958 0 0 0-3.8-2.383 5.779 5.779 0 0 0 2.51-4.765A5.788 5.788 0 0 0 10 0a5.788 5.788 0 0 0-5.781 5.781 5.757 5.757 0 0 0 1.472 3.85 5.832 5.832 0 0 0 1.038.915 9.958 9.958 0 0 0-3.8 2.383A9.934 9.934 0 0 0 0 19.999h1.562c0-4.651 3.786-8.436 8.438-8.436 4.652 0 8.437 3.785 8.437 8.437H20c0-2.67-1.04-5.182-2.929-7.071ZM10 1.563A4.223 4.223 0 0 0 5.781 5.78 4.224 4.224 0 0 0 10 10.001a4.224 4.224 0 0 0 4.219-4.22A4.223 4.223 0 0 0 10 1.563Z" fill="rgba(41, 40, 45, 1)" fill-rule="evenodd" data-name="user"/></svg>